<?xml version="1.0" standalone="no"?>
<!DOCTYPE svg PUBLIC "-//W3C//DTD SVG 1.1//EN" "http://www.w3.org/Graphics/SVG/1.1/DTD/svg11.dtd" >
<svg xmlns="http://www.w3.org/2000/svg">
<metadata>Generated by IcoMoon</metadata>
<defs>
<font id="football" horiz-adv-x="1024">
<font-face units-per-em="1024" ascent="960" descent="-64" />
<missing-glyph horiz-adv-x="1024" />
<glyph unicode="&#x20;" horiz-adv-x="512" d="" />
<glyph unicode="&#xe900;" glyph-name="left-arrow" d="M755.823-64l-512.017 512 512.017 512 24.37-24.37-487.63-487.63 487.63-487.63z" />
<glyph unicode="&#xe901;" glyph-name="right-arrow" d="M268.194-64l-24.388 24.37 487.63 487.63-487.63 487.63 24.388 24.37 512-512z" />
<glyph unicode="&#xe902;" glyph-name="cross" d="M1024 468.617h-491.38v491.383h-41.258v-491.383h-491.362v-41.248h491.362v-491.369h41.258v491.369h491.38z" />
<glyph unicode="&#xe903;" glyph-name="close" d="M1024 901.486l-58.511 58.514-453.489-453.486-453.486 453.486-58.514-58.514 453.486-453.486-453.486-453.489 58.514-58.511 453.486 453.486 453.489-453.486 58.511 58.511-453.486 453.489z" />
<glyph unicode="&#xe904;" glyph-name="menu" d="M39.386 763.077h945.227c23.629 0 39.386 15.753 39.386 39.386s-15.753 39.386-39.386 39.386h-945.227c-23.634-0.005-39.386-15.757-39.386-39.386s15.753-39.386 39.386-39.386zM984.614 487.386h-945.227c-23.629 0-39.386-15.753-39.386-39.386s15.753-39.386 39.386-39.386h945.227c23.629 0 39.386 15.753 39.386 39.386s-15.757 39.386-39.386 39.386zM984.614 132.923h-945.227c-23.629 0-39.386-15.753-39.386-39.386s15.753-39.386 39.386-39.386h945.227c23.629 0 39.386 15.753 39.386 39.386s-15.757 39.386-39.386 39.386z" />
<glyph unicode="&#xe905;" glyph-name="music" d="M405.84 659.214c-116.464 0-211.214-94.75-211.214-211.214s94.75-211.214 211.214-211.214 211.214 94.75 211.214 211.214-94.75 211.214-211.214 211.214zM405.84 269.961c-98.171 0-178.039 79.868-178.039 178.039s79.868 178.039 178.039 178.039 178.039-79.868 178.039-178.039-79.868-178.039-178.039-178.039zM405.84 588.441c-9.161 0-16.587-7.427-16.587-16.587s7.427-16.587 16.587-16.587c59.147 0 107.266-48.119 107.266-107.266 0-9.161 7.427-16.587 16.587-16.587s16.587 7.427 16.587 16.587c0 77.439-63.001 140.441-140.441 140.441zM1007.413 747.68h-371.559c-9.161 0-16.587-7.427-16.587-16.587v-17.693c0-10.366-8.433-18.799-18.799-18.799s-18.799 8.433-18.799 18.799v17.693c0 9.161-7.427 16.587-16.587 16.587h-151.959c-149.305 0-274.733-105.43-301.624-244.006-11.658 8.78-26.146 13.993-41.829 13.993-38.414 0-69.667-31.253-69.667-69.667s31.253-69.667 69.667-69.667c15.603 0 30.026 5.155 41.65 13.854 10.996-58.777 39.35-112.828 82.617-156.093 56.667-56.667 131.813-87.779 211.88-87.774 0.865 0 1.743 0.004 2.61 0.011 163.82 1.382 297.097 139.078 297.097 306.948v41.635c0 35.283 25.259 65.1 60.062 70.901l200.202 33.367c33.732 5.62 58.215 34.52 58.215 68.716v61.195c0 9.161-7.427 16.587-16.587 16.587zM69.667 411.508c-20.122 0-36.492 16.371-36.492 36.492s16.371 36.492 36.492 36.492 36.492-16.371 36.492-36.492-16.371-36.492-36.492-36.492zM990.825 669.898c0-17.912-12.823-33.051-30.494-35.995l-200.202-33.367c-50.866-8.477-87.783-52.058-87.783-103.625v-41.635c0-149.73-118.521-272.543-264.203-273.773-0.774-0.007-1.546-0.009-2.32-0.009-71.202 0-138.041 27.668-188.429 78.058-50.939 50.937-78.656 118.68-78.050 190.749 1.23 145.682 124.046 264.203 273.777 264.203h135.371v-1.106c0-28.659 23.315-51.974 51.974-51.974s51.974 23.315 51.974 51.974v1.106h338.384v-44.607z" />
<glyph unicode="&#xe906;" glyph-name="player" d="M1024 341.838c0 9.161-7.427 16.587-16.587 16.587h-372.664v89.291l236.171 84.414c18.321 6.549 33.199 20.59 40.814 38.52 7.564 17.81 7.354 38.096-0.579 55.658-40.086 88.743-105.454 162.251-189.034 212.584-86.297 51.967-185.584 74.876-287.13 66.252-114.418-9.72-221.802-61.537-302.373-145.907-80.504-84.299-127.451-193.962-132.195-308.784-5.41-130.959 41.462-255.099 132-349.643 4.109-4.684 10.576-6.721 16.722-5.085 74.579 19.814 112.728 1.398 161.030-21.924 6.345-3.063 12.905-6.232 19.708-9.393 18.695-8.687 38.64-12.987 58.52-12.987 26.106 0 52.109 7.413 75.033 22.039 40.796 26.029 65.153 70.408 65.153 118.717v26.911h72.985v-89.572c0-77.439 63.001-140.44 140.44-140.44h184.474c34.632 0 63.592 24.844 68.858 59.073l28.462 185.007c0.011 0.077 0.007 0.159 0.018 0.237 0.104 0.748 0.175 1.506 0.175 2.282 0 0 0 0 0 0.002v0 106.157zM990.825 325.251v-72.985h-356.076v72.985h356.076zM601.574 358.426h-67.444c10.384 33.65 34.738 61.957 67.444 76.93v-76.93zM881.198 583.619c-4.063-9.568-11.68-16.758-21.444-20.248l-259.431-92.728c-50.959-18.215-88.338-61.084-100.586-112.217h-94.205c6.067 60.299 46.268 113.153 103.842 134.475l364.527 134.553c2.424-4.883 4.766-9.815 7.018-14.803 4.193-9.278 4.293-19.589 0.281-29.032zM495.415 252.266h-71.879c-10.366 0-18.799 8.433-18.799 18.799v54.186h90.746c-0.024-1.148-0.069-2.291-0.069-3.441v-69.543zM33.568 449.084c4.41 106.763 48.108 208.776 123.041 287.243 74.979 78.514 174.84 126.728 281.187 135.762 94.533 8.028 186.936-13.277 267.208-61.614 63.419-38.191 115.563-90.72 152.878-153.571l-360.013-132.885c-75.548-27.982-126.308-100.909-126.308-181.473v-71.478c0-28.659 23.315-51.974 51.974-51.974h1.106v-26.911c0-22.78-18.843-36.882-36.302-36.882-4.899 0-9.831 1.137-14.657 3.379-6.115 2.842-12.118 5.739-17.921 8.541l-0.396 0.19c-39.555 19.098-84.388 40.745-147.745 40.745-12.564 0-25.553-0.874-38.62-2.594-1.537-0.203-33.739-4.631-62.114-20.091-51.516 77.293-77.249 168.517-73.319 263.611zM495.415 192.18c0-36.919-18.624-70.846-49.822-90.749-30.782-19.637-68.809-22.234-101.729-6.936-6.58 3.057-13.029 6.171-19.266 9.181-35.513 17.145-69.621 33.617-117.211 33.617-17.058 0-35.862-2.119-57.067-7.082-8.371 9.088-16.295 18.472-23.813 28.097 21.889 10.875 46.58 14.329 46.843 14.365 11.622 1.53 23.154 2.307 34.274 2.307 55.767 0 96.968-19.894 133.318-37.446l0.394-0.19c5.914-2.857 12.029-5.81 18.37-8.754 9.236-4.291 18.87-6.467 28.634-6.467 33.411 0 69.477 26.783 69.477 70.056v26.911h37.598v-26.911zM528.59 252.266v69.543c0 1.152 0.035 2.296 0.069 3.441h72.916v-72.985h-72.985zM988.078 219.092l-11.229-72.985h-342.101v72.985h353.329zM926.488 22.254h-184.474c-53.507 0-97.981 39.381-105.978 90.678h335.709l-9.189-59.735c-2.758-17.93-17.928-30.943-36.068-30.943zM764.075 667.438c3.28-3.965 8.017-6.013 12.79-6.013 3.724 0 7.471 1.247 10.563 3.806 7.057 5.839 8.046 16.295 2.207 23.355-11.204 13.544-23.415 26.487-36.295 38.472-6.704 6.237-17.2 5.863-23.444-0.845-6.241-6.706-5.863-17.202 0.845-23.444 11.83-11.007 23.045-22.893 33.334-35.331zM476.616 802.968c72.202 0 142.488-20.909 203.264-60.464 2.793-1.818 5.932-2.687 9.032-2.687 5.423 0 10.738 2.658 13.916 7.542 4.998 7.679 2.824 17.954-4.852 22.95-66.173 43.070-142.72 65.837-221.36 65.837-9.161 0-16.587-7.427-16.587-16.587s7.427-16.59 16.587-16.59zM237.757 254.478c43.293 0 78.514 35.221 78.514 78.514s-35.221 78.514-78.514 78.514-78.514-35.221-78.514-78.514 35.221-78.514 78.514-78.514zM237.757 378.331c25.001 0 45.339-20.338 45.339-45.339s-20.338-45.339-45.339-45.339-45.339 20.338-45.339 45.339 20.338 45.339 45.339 45.339z" />
<glyph unicode="&#xe907;" glyph-name="quotes" d="M224.78 543.906c123.591 0 223.781-100.192 223.781-223.781s-100.19-223.781-223.781-223.781-223.781 100.192-223.781 223.781l-0.999 31.969c0 247.183 200.38 447.563 447.563 447.563v-127.875c-85.391 0-165.672-33.254-226.053-93.635-11.623-11.625-22.23-23.993-31.799-36.984 11.427 1.798 23.137 2.743 35.070 2.743zM800.219 543.906c123.589 0 223.781-100.192 223.781-223.781s-100.192-223.781-223.781-223.781-223.781 100.192-223.781 223.781l-0.999 31.969c0 247.183 200.378 447.563 447.563 447.563v-127.875c-85.389 0-165.674-33.254-226.053-93.635-11.625-11.625-22.232-23.993-31.801-36.984 11.427 1.798 23.137 2.743 35.072 2.743z" />
<glyph unicode="&#xe908;" glyph-name="shapes" d="M916.628 525.906c-14.694 40.458-28.57 78.673-29.535 113.58-1.017 36.855 12.766 67.796 43.377 97.371 5.764 5.569 6.723 14.462 2.276 21.13l-106.16 159.24c-4.821 7.234-14.409 9.519-21.975 5.233-0.431-0.243-43.813-24.532-100.586-32.569-74.305-10.523-134.644 11.080-179.33 64.198-3.154 3.749-7.801 5.912-12.695 5.912s-9.541-2.163-12.693-5.91c-44.483-52.876-104.501-74.526-178.362-64.333-56.922 7.849-101.135 32.465-101.555 32.702-7.566 4.282-17.151 1.999-21.975-5.233l-106.16-159.24c-4.445-6.668-3.488-15.561 2.276-21.13 30.612-29.574 44.395-60.516 43.377-97.371-0.964-34.907-14.84-73.124-29.535-113.58-23.229-63.968-49.559-136.468-36.404-221.974 10.873-70.665 40.274-124.059 89.889-163.232 43.262-34.153 96.546-53.655 148.075-72.514 76.179-27.88 148.135-54.219 188.734-123.944 2.97-5.105 8.431-8.243 14.334-8.243s11.364 3.138 14.334 8.243c40.599 69.725 112.556 96.064 188.734 123.944 51.53 18.859 104.813 38.361 148.075 72.514 49.614 39.173 79.018 92.567 89.889 163.232 13.153 85.505-13.175 158.006-36.406 221.974zM920.244 308.977c-21.254-138.152-116.13-172.875-216.577-209.637-70.837-25.927-143.858-52.655-191.669-116.712-47.81 64.056-120.832 90.784-191.669 116.712-100.447 36.762-195.323 71.485-216.577 209.637-11.863 77.114 11.859 142.433 34.798 205.605 29.8 82.057 58.019 159.746-12.25 236.177l90.565 135.849c18.748-8.776 54.867-23.391 98.457-29.561 78.423-11.105 146.018 10.211 196.674 61.723 50.656-51.512 118.253-72.826 196.674-61.723 43.59 6.171 79.708 20.785 98.457 29.561l90.565-135.849c-70.269-76.433-42.050-154.122-12.25-236.177 22.946-63.172 46.666-128.491 34.803-205.605zM845.057 744.084c3.536 5.545 3.466 12.653-0.184 18.122l-44.702 67.053c-4.151 6.228-11.963 8.9-19.062 6.531-38.129-12.752-75.842-19.215-112.098-19.215-55.245 0-104.87 15.134-147.498 44.983-5.713 4.001-13.316 4.001-19.029 0-42.628-29.849-92.253-44.983-147.498-44.983-36.256 0-73.969 6.467-112.096 19.215-7.099 2.382-14.911-0.299-19.062-6.529l-44.702-67.055c-3.647-5.472-3.72-12.58-0.184-18.122 52.868-82.86 22.099-167.584-5.047-242.336-22.309-61.427-43.38-119.447-32.978-187.056 17.045-110.795 80.914-139.266 192.362-180.054 58.067-21.252 118.114-43.231 167.945-85.83 3.103-2.652 6.94-3.979 10.78-3.979s7.674 1.327 10.78 3.979c49.831 42.601 109.878 64.576 167.967 85.839 111.421 40.779 175.292 69.249 192.337 180.045 10.401 67.608-10.669 125.629-32.978 187.056-27.148 74.752-57.917 159.476-5.051 242.336zM850.294 319.737c-14.263-92.706-65.558-115.363-170.973-153.945-48.561-17.773-102.533-37.578-150.734-70.826v176.101c0 9.163-7.427 16.587-16.587 16.587s-16.587-7.425-16.587-16.587v-176.104c-48.201 33.248-102.174 53.053-150.758 70.835-105.392 38.574-156.687 61.232-170.95 153.938-6.885 44.753 2.667 86.609 16.727 129.128h56.17c9.161 0 16.587 7.425 16.587 16.587s-7.427 16.587-16.587 16.587h-44.565c1.009 2.789 2.021 5.582 3.041 8.384 27.378 75.391 61.241 168.619 7.5 262.155l31.925 47.887c37.419-11.328 74.531-17.065 110.486-17.065 51.293 0 98.386 11.686 140.425 34.758v-157.84c0-9.163 7.427-16.587 16.587-16.587s16.587 7.425 16.587 16.587v157.84c42.039-23.072 89.132-34.758 140.425-34.758 35.953 0 73.065 5.737 110.486 17.063l31.925-47.885c-53.741-93.536-19.878-186.764 7.5-262.157 1.017-2.802 2.030-5.596 3.039-8.382h-44.563c-9.161 0-16.587-7.425-16.587-16.587s7.427-16.587 16.587-16.587h56.167c14.062-42.519 23.612-84.375 16.727-129.128zM512 607.337c-78.857 0-153.892-40.635-200.717-108.697-13.533-19.675-13.533-46.109 0-65.781 46.825-68.062 121.86-108.697 200.717-108.697s153.892 40.635 200.715 108.697c13.535 19.675 13.535 46.109 0 65.781-46.823 68.062-121.858 108.697-200.715 108.697zM338.614 451.66c-5.797 8.426-5.797 19.75 0 28.174 9.807 14.256 20.869 27.046 32.943 38.293v-104.758c-12.073 11.244-23.136 24.036-32.943 38.291zM404.732 387.953v155.59c32.087 19.894 68.778 30.618 107.268 30.618s75.181-10.724 107.266-30.618v-155.593c-32.085-19.894-68.776-30.618-107.266-30.618-38.49 0.002-75.183 10.727-107.268 30.62zM685.386 451.66v0c-9.809-14.256-20.871-27.049-32.945-38.295v104.764c12.073-11.246 23.136-24.039 32.945-38.295 5.797-8.424 5.797-19.748 0-28.174zM582.773 482.336h-1.106v0.807c0 9.163-7.427 16.587-16.587 16.587s-16.587-7.425-16.587-16.587v-0.807h-19.905v0.807c0 9.163-7.427 16.587-16.587 16.587s-16.587-7.425-16.587-16.587v-0.807h-19.905v0.807c0 9.163-7.427 16.587-16.587 16.587s-16.587-7.425-16.587-16.587v-0.807h-1.106c-9.161 0-16.587-7.425-16.587-16.587s7.427-16.587 16.587-16.587h1.106v-0.809c0-9.163 7.427-16.587 16.587-16.587s16.587 7.425 16.587 16.587v0.809h19.905v-0.809c0-9.163 7.427-16.587 16.587-16.587s16.587 7.425 16.587 16.587v0.809h19.905v-0.809c0-9.163 7.427-16.587 16.587-16.587s16.587 7.425 16.587 16.587v0.809h1.106c9.161 0 16.587 7.425 16.587 16.587s-7.427 16.587-16.587 16.587z" />
<glyph unicode="&#xe909;" glyph-name="signs" d="M918.948 818.453h-124.959v40.328c20.546 6.94 35.387 26.385 35.387 49.245 0 28.659-23.315 51.974-51.974 51.974h-530.8c-28.659 0-51.974-23.315-51.974-51.974 0-22.86 14.84-42.305 35.387-49.245v-40.328h-124.959c-28.659 0-51.974-23.315-51.974-51.974v-106.158c0-125.092 100.863-227.052 225.533-228.866 33.887-49.866 83.322-88.345 141.277-108.431-8.046-9.156-12.943-21.146-12.943-34.263 0-21.721 13.398-40.363 32.361-48.119-19.923-19.131-32.361-45.998-32.361-75.734 0-30.479 12.814-58.651 35.387-78.589v-9.877c0-20.122-16.371-36.493-36.493-36.493-38.414 0-69.668-31.253-69.668-69.668v-17.693c0-9.163 7.427-16.588 16.588-16.588h318.48c9.161 0 16.588 7.425 16.588 16.588v17.693c0 38.414-31.253 69.668-69.668 69.668-20.122 0-36.493 16.371-36.493 36.493v9.875c22.57 19.938 35.387 48.115 35.387 78.592 0 29.736-12.438 56.603-32.361 75.734 18.961 7.756 32.361 26.398 32.361 48.119 0 13.117-4.894 25.107-12.943 34.263 57.955 20.086 107.39 58.565 141.277 108.431 124.67 1.814 225.533 103.774 225.533 228.866v106.158c0 28.659-23.315 51.974-51.974 51.974zM246.601 926.825h530.8c10.366 0 18.799-8.433 18.799-18.799s-8.433-18.799-18.799-18.799h-530.8c-10.366 0-18.799 8.433-18.799 18.799s8.433 18.799 18.799 18.799zM86.255 660.321v106.158c0 10.366 8.433 18.799 18.799 18.799h124.959v-195.73c0-44.291 10.275-86.22 28.55-123.553-96.926 11.613-172.309 94.325-172.309 194.326zM618.161 6.773c20.122 0 36.493-16.371 36.493-36.493v-1.106h-285.305v1.106c0 20.122 16.371 36.493 36.493 36.493 38.414 0 69.668 31.253 69.668 69.668v1.106h72.985v-1.106c0-38.414 31.251-69.668 69.668-69.668zM559.207 110.722h-94.412c-15.736 13.67-24.673 33.129-24.673 54.186 0 39.635 32.246 71.879 71.879 71.879s71.879-32.244 71.879-71.879c0-21.055-8.94-40.516-24.673-54.186zM565.081 307.56c10.366 0 18.799-8.433 18.799-18.799s-8.433-18.799-18.799-18.799h-106.16c-10.366 0-18.799 8.433-18.799 18.799s8.433 18.799 18.799 18.799h106.16zM512.001 340.735c-137.196 0-248.813 111.618-248.813 248.813v266.504h497.625v-266.504c0-137.194-111.618-248.813-248.813-248.813zM937.747 660.321c0-100.001-75.385-182.713-172.309-194.326 18.273 37.333 28.55 79.262 28.55 123.553v195.73h124.959c10.366 0 18.799-8.433 18.799-18.799v-106.158zM706.628 712.295c-9.161 0-16.588-7.425-16.588-16.588v-106.16c0-53.184-23.601-103.207-64.753-137.243-7.060-5.839-8.050-16.293-2.212-23.355 3.28-3.966 8.017-6.016 12.792-6.016 3.722 0 7.469 1.245 10.561 3.806 48.798 40.361 76.787 99.702 76.787 162.808v106.16c0 9.163-7.427 16.588-16.588 16.588zM706.628 818.453c-9.161 0-16.588-7.425-16.588-16.588v-35.387c0-9.163 7.427-16.588 16.588-16.588s16.588 7.425 16.588 16.588v35.387c0 9.163-7.427 16.588-16.588 16.588z" />
<glyph unicode="&#xe90a;" glyph-name="sport" d="M977.235 887.951l-8.538 17.075-17.075 8.538c-256.13 98.183-550.679 38.419-747.047-157.947s-256.13-490.917-157.947-747.047l8.538-17.075 17.075-8.538c81.108-34.149 170.753-46.957 256.13-46.957 183.56 0 358.582 72.57 495.186 204.904 192.097 196.366 251.863 490.917 153.678 747.047v0zM759.523 200.669c-157.947-157.947-384.195-213.443-593.367-157.947l119.527 119.527-59.764 59.764-119.527-119.527c-55.495 209.173 0 435.421 157.947 593.369s384.195 213.441 593.369 157.945l-119.527-119.527 59.764-59.764 119.527 119.527c55.493-209.171 0-435.419-157.949-593.367zM449.231 569.861l184.127-184.127-60.369-60.369-184.127 184.127 60.369 60.369zM359.588 480.21l184.127-184.127-60.369-60.369-184.127 184.127 60.369 60.369zM477.782 597.669l183.56-183.558 59.762 59.762-179.291 187.83-64.032-64.034z" />
<glyph unicode="&#xe90b;" glyph-name="sports" d="M654.167 558.818l34.676 34.676c8.656 8.658 8.656 22.696 0.002 31.352-8.658 8.658-22.692 8.656-31.352 0l-34.676-34.676-30.674 30.674c-8.656 8.654-22.692 8.654-31.35 0-8.656-8.656-8.656-22.692 0-31.352l30.674-30.674-42.54-42.54-30.674 30.674c-8.658 8.658-22.692 8.656-31.35 0-8.656-8.656-8.658-22.692-0.002-31.35l30.674-30.674-42.542-42.542-30.674 30.674c-8.656 8.656-22.692 8.656-31.352 0-8.656-8.656-8.656-22.692 0-31.352l30.674-30.674-42.54-42.54-30.674 30.674c-8.658 8.658-22.692 8.656-31.35 0-8.656-8.656-8.656-22.692-0.002-31.35l30.674-30.674-34.676-34.676c-8.656-8.656-8.658-22.692-0.002-31.35 4.33-4.33 10.002-6.492 15.674-6.492s11.348 2.166 15.674 6.492l34.676 34.676 30.674-30.674c4.33-4.33 10.002-6.492 15.674-6.492s11.348 2.166 15.674 6.492c8.656 8.656 8.658 22.692 0.002 31.35l-30.674 30.674 42.54 42.54 30.674-30.674c4.33-4.328 10.002-6.492 15.674-6.492s11.348 2.166 15.674 6.492c8.656 8.656 8.656 22.692 0 31.352l-30.674 30.672 42.542 42.542 30.674-30.674c4.33-4.33 10.002-6.492 15.674-6.492s11.348 2.166 15.674 6.492c8.656 8.656 8.656 22.692 0 31.35l-30.674 30.674 42.54 42.54 30.672-30.674c4.33-4.33 10.002-6.492 15.674-6.492s11.348 2.164 15.674 6.492c8.656 8.656 8.656 22.692 0 31.352l-30.656 30.674zM1013.67 843.172c-9.008 54.69-51.808 97.488-106.498 106.498-98.482 16.222-200.117 13.26-297.439-8.33-0.486-0.086-0.962-0.204-1.44-0.324-20.548-4.6-40.906-10.010-60.996-16.27-119.508-37.23-229.775-104.010-318.881-193.119-89.098-89.098-155.879-199.363-193.123-318.869-6.15-19.736-11.482-39.732-16.032-59.912-0.326-1.056-0.558-2.13-0.722-3.216-21.464-97.112-24.392-198.513-8.242-296.781 8.996-54.732 51.814-97.55 106.546-106.546 41.874-6.884 84.302-10.304 126.74-10.302 57.068 0 114.13 6.224 169.787 18.506 1.174 0.164 2.34 0.41 3.482 0.762 20.178 4.548 40.17 9.88 59.902 16.028 119.506 37.242 229.771 104.022 318.869 193.121 89.104 89.108 155.885 199.375 193.119 318.879 6.252 20.064 11.656 40.394 16.252 60.914 0.13 0.512 0.256 1.024 0.348 1.542 21.588 97.318 24.548 198.947 8.328 297.419zM124.034-9.952c-35.954 5.908-64.080 34.036-69.99 69.99-13.090 79.642-12.89 161.459 0.254 241.015l310.751-310.749c-79.554-13.146-161.371-13.348-241.015-0.256zM946.416 496.484c-35.11-112.68-98.092-216.667-182.143-300.719-84.044-84.044-188.029-147.027-300.709-182.143-15.302-4.768-30.774-9.012-46.368-12.76l-352.335 352.333c3.748 15.594 7.992 31.066 12.76 46.368 35.116 112.682 98.098 216.667 182.143 300.711 84.052 84.050 188.037 147.035 300.719 182.141 15.266 4.758 30.702 8.974 46.258 12.716l352.401-352.397c-3.742-15.554-7.972-30.986-12.726-46.25zM969.7 594.873l-310.827 310.827c40.074 6.624 80.714 9.978 121.37 9.978 40.080 0 80.176-3.238 119.718-9.754 35.928-5.916 64.042-34.032 69.958-69.958 13.122-79.66 12.934-161.505-0.22-241.093zM578.174 830.451c-4 11.572-16.622 17.71-28.19 13.716-100.668-34.774-190.401-91.096-266.707-167.403-8.656-8.656-8.656-22.692 0-31.352 4.33-4.33 10.002-6.492 15.674-6.492s11.348 2.164 15.674 6.492c71.512 71.512 155.569 124.286 249.833 156.845 11.572 4 17.712 16.62 13.716 28.194z" />
<glyph unicode="&#xe90c;" glyph-name="sports-1" d="M672.384 948.068c58.123 8.703 113.119 11.846 162.087 11.846 25.955 0 51.905-0.914 77.118-2.714 58.323-4.166 105.445-51.288 109.611-109.611 4.44-62.168 5.017-146.252-8.938-239.394l-339.878 339.872zM11.738 287.804c-13.955-93.141-13.378-177.225-8.938-239.394 4.166-58.323 51.294-105.445 109.611-109.611 25.207-1.8 51.151-2.714 77.118-2.714 0.011 0 0.011 0 0.023 0 48.962 0 103.953 3.143 162.064 11.841l-339.878 339.878zM999.593 540.038c-28.156-126.44-85.558-263.183-196.466-381.806-0.44-0.469-0.891-0.92-1.36-1.36-118.091-110.411-254.583-167.985-381.994-196.283l-395.366 395.372c28.156 126.44 85.558 263.183 196.466 381.806 0.44 0.469 0.891 0.92 1.36 1.36 118.091 110.411 254.583 167.985 381.994 196.283l395.366-395.372zM723.941 537.81l-40.859 40.859 31.784 31.784c11.16 11.16 11.16 29.253 0 40.408s-29.247 11.155-40.408 0l-31.784-31.784-40.859 40.859c-11.155 11.149-29.241 11.155-40.408 0-11.16-11.16-11.16-29.253 0-40.408l40.859-40.859-46.705-46.705-40.859 40.859c-11.155 11.149-29.241 11.155-40.408 0-11.16-11.16-11.16-29.253 0-40.408l40.859-40.859-46.705-46.705-40.859 40.859c-11.16 11.155-29.247 11.155-40.408 0-11.16-11.16-11.16-29.253 0-40.408l40.859-40.859-46.705-46.705-40.859 40.859c-11.16 11.155-29.247 11.155-40.408 0-11.16-11.16-11.16-29.253 0-40.408l40.859-40.859-31.784-31.784c-11.16-11.16-11.16-29.253 0-40.408 5.583-5.577 12.892-8.366 20.207-8.366s14.624 2.789 20.207 8.366l31.784 31.784 40.859-40.859c5.583-5.577 12.892-8.366 20.207-8.366s14.624 2.789 20.207 8.366c11.16 11.16 11.16 29.253 0 40.408l-40.859 40.859 46.705 46.705 40.859-40.859c5.583-5.577 12.892-8.366 20.207-8.366s14.624 2.789 20.207 8.366c11.16 11.16 11.16 29.253 0 40.408l-40.859 40.859 46.705 46.705 40.859-40.859c5.583-5.577 12.892-8.366 20.207-8.366 7.309 0 14.624 2.789 20.207 8.366 11.16 11.16 11.16 29.253 0 40.408l-40.859 40.859 46.705 46.705 40.859-40.859c5.583-5.577 12.892-8.366 20.207-8.366 7.309 0 14.624 2.789 20.207 8.366 11.126 11.155 11.126 29.247-0.029 40.408z" />
<glyph unicode="&#xe90d;" glyph-name="sports-2" d="M352.761 606.135c-28.659 0-51.974-23.315-51.974-51.974s23.315-51.974 51.974-51.974 51.974 23.315 51.974 51.974-23.315 51.974-51.974 51.974zM352.761 535.363c-10.366 0-18.799 8.433-18.799 18.799s8.433 18.799 18.799 18.799 18.799-8.433 18.799-18.799-8.433-18.799-18.799-18.799zM512 606.135c-28.659 0-51.974-23.315-51.974-51.974s23.315-51.974 51.974-51.974 51.974 23.315 51.974 51.974-23.315 51.974-51.974 51.974zM512 535.363c-10.366 0-18.799 8.433-18.799 18.799s8.433 18.799 18.799 18.799 18.799-8.433 18.799-18.799-8.433-18.799-18.799-18.799zM671.239 606.135c-28.659 0-51.974-23.315-51.974-51.974s23.315-51.974 51.974-51.974 51.974 23.315 51.974 51.974-23.315 51.974-51.974 51.974zM671.239 535.363c-10.366 0-18.799 8.433-18.799 18.799s8.433 18.799 18.799 18.799 18.799-8.433 18.799-18.799-8.433-18.799-18.799-18.799zM563.974 394.923c0 28.659-23.315 51.974-51.974 51.974s-51.974-23.315-51.974-51.974 23.315-51.974 51.974-51.974 51.974 23.315 51.974 51.974zM493.201 394.923c0 10.366 8.433 18.799 18.799 18.799s18.799-8.433 18.799-18.799-8.433-18.799-18.799-18.799-18.799 8.433-18.799 18.799zM464.883 666.286c3.24-3.238 7.486-4.859 11.731-4.859s8.491 1.619 11.731 4.859l23.656 23.656 23.656-23.656c3.24-3.238 7.486-4.859 11.731-4.859s8.491 1.619 11.731 4.859c6.478 6.478 6.478 16.981 0 23.457l-23.658 23.658 23.658 23.658c6.478 6.478 6.478 16.981 0 23.457-6.48 6.478-16.981 6.478-23.459 0l-23.656-23.656-23.656 23.656c-6.48 6.478-16.981 6.478-23.459 0s-6.478-16.981 0-23.457l23.658-23.658-23.658-23.658c-6.48-6.476-6.48-16.981-0.004-23.457zM399.878 760.515c-6.48 6.478-16.981 6.478-23.459 0l-23.656-23.656-23.656 23.656c-6.48 6.478-16.981 6.478-23.459 0s-6.478-16.981 0-23.457l23.658-23.658-23.658-23.658c-6.478-6.478-6.478-16.981 0-23.457 3.24-3.238 7.486-4.859 11.731-4.859s8.491 1.619 11.731 4.859l23.656 23.656 23.656-23.656c3.24-3.238 7.486-4.859 11.731-4.859s8.491 1.619 11.731 4.859c6.478 6.478 6.478 16.981 0 23.457l-23.662 23.658 23.658 23.658c6.476 6.476 6.476 16.981 0 23.457zM624.122 666.286c3.24-3.238 7.486-4.859 11.731-4.859s8.491 1.619 11.731 4.859l23.656 23.656 23.656-23.656c3.24-3.238 7.486-4.859 11.731-4.859s8.491 1.619 11.731 4.859c6.478 6.478 6.478 16.981 0 23.457l-23.658 23.658 23.658 23.658c6.478 6.478 6.478 16.981 0 23.457-6.48 6.478-16.981 6.478-23.459 0l-23.656-23.656-23.656 23.656c-6.48 6.478-16.981 6.478-23.459 0s-6.478-16.981 0-23.457l23.658-23.658-23.658-23.658c-6.48-6.476-6.48-16.981-0.004-23.457zM618.159 378.335c106.708 0 193.52 86.812 193.52 193.52v35.895l3.963-7.927c2.904-5.812 8.765-9.174 14.849-9.172 2.493 0 5.023 0.564 7.407 1.754 8.192 4.096 11.514 14.059 7.418 22.254l-35.386 70.773c-0.024 0.046-0.055 0.088-0.080 0.135-0.323 0.63-0.679 1.243-1.077 1.825-0.046 0.069-0.102 0.13-0.148 0.199-0.352 0.495-0.732 0.966-1.132 1.42-0.119 0.135-0.239 0.268-0.363 0.398-0.936 0.989-1.988 1.858-3.143 2.594-0.135 0.084-0.27 0.166-0.407 0.245-0.515 0.307-1.046 0.591-1.597 0.843-0.082 0.038-0.159 0.080-0.241 0.117-0.637 0.279-1.294 0.518-1.971 0.714-0.117 0.035-0.237 0.060-0.354 0.091-0.555 0.15-1.119 0.27-1.694 0.36-0.175 0.029-0.349 0.058-0.524 0.080-0.69 0.088-1.389 0.148-2.103 0.148s-1.413-0.060-2.103-0.148c-0.177-0.022-0.349-0.051-0.524-0.080-0.575-0.093-1.141-0.212-1.694-0.36-0.117-0.031-0.237-0.058-0.354-0.091-0.675-0.199-1.331-0.436-1.968-0.714-0.082-0.035-0.161-0.080-0.243-0.117-0.551-0.252-1.081-0.533-1.595-0.84-0.137-0.082-0.272-0.161-0.407-0.245-1.152-0.734-2.207-1.606-3.143-2.594-0.124-0.13-0.243-0.263-0.363-0.398-0.403-0.453-0.783-0.924-1.132-1.42-0.049-0.069-0.102-0.13-0.148-0.199-0.4-0.582-0.754-1.192-1.077-1.825-0.024-0.046-0.055-0.088-0.080-0.135l-35.386-70.773c-4.098-8.194-0.776-18.158 7.418-22.254 8.199-4.098 18.16-0.776 22.256 7.418l3.963 7.927v-35.895c0-88.415-71.93-160.345-160.345-160.345-9.163 0-16.587-7.427-16.587-16.587s7.413-16.59 16.576-16.59zM972.024 252.271h-18.799v602.676c0 28.659-23.315 51.974-51.974 51.974h-372.664v36.492c0 9.161-7.425 16.587-16.587 16.587s-16.587-7.427-16.587-16.587v-36.492h-372.664c-28.659 0-51.974-23.315-51.974-51.974v-602.676h-18.799c-9.163 0-16.587-7.427-16.587-16.587s7.425-16.587 16.587-16.587h241.462l-97.755-260.681c-3.216-8.577 1.13-18.138 9.707-21.356 1.92-0.719 3.888-1.059 5.823-1.059 6.715 0 13.038 4.109 15.532 10.769l102.123 272.328h166.542v-266.504c0-9.161 7.425-16.587 16.587-16.587s16.587 7.427 16.587 16.587v266.504h166.542l102.123-272.328c2.497-6.659 8.816-10.769 15.532-10.769 1.935 0 3.904 0.341 5.823 1.059 8.577 3.218 12.923 12.777 9.707 21.356l-97.753 260.681h241.462c9.163 0 16.587 7.427 16.587 16.587s-7.422 16.587-16.585 16.587zM103.95 854.946c0 10.366 8.433 18.799 18.799 18.799h778.502c10.366 0 18.799-8.433 18.799-18.799v-602.676h-816.1v602.676z" />
<glyph unicode="&#xe90e;" glyph-name="sports-3" d="M151.922 369.168c-11.077-15.189-21.638-30.485-31.036-45.722-5.227-8.451-2.601-19.528 5.85-24.743 2.949-1.822 6.21-2.685 9.434-2.685 6.030 0 11.916 3.033 15.308 8.535 7.972 12.923 16.879 25.906 26.157 38.853l20.919-20.955c3.512-3.524 8.128-5.287 12.731-5.287 4.591 0 9.195 1.75 12.695 5.251 7.037 7.013 7.061 18.401 0.048 25.438l-24.599 24.635c14.433 18.233 30.065 36.179 46.753 53.634l37.018-37.030c3.512-3.512 8.116-5.263 12.719-5.263s9.207 1.75 12.719 5.263c7.025 7.025 7.025 18.413 0 25.426l-37.018 37.018c17.346 16.555 35.304 32.175 53.705 46.717l29.922-29.91c3.512-3.512 8.116-5.263 12.719-5.263s9.207 1.75 12.719 5.263c7.025 7.025 7.025 18.413 0 25.426l-26.313 26.313c12.527 9.003 25.426 17.874 38.996 26.337 8.427 5.251 10.993 16.351 5.742 24.779s-16.351 10.993-24.767 5.742c-15.98-9.962-31.132-20.463-45.698-31.12l-26.062 26.050c-7.025 7.025-18.401 7.025-25.426 0-7.025-7.013-7.025-18.413 0-25.426l22.573-22.573c-18.317-14.637-36.215-30.329-53.526-46.908l-27.896 27.896c-7.025 7.025-18.401 7.013-25.426 0-7.025-7.025-7.025-18.413 0-25.438l27.896-27.896c-16.675-17.406-32.379-35.268-46.908-53.43l-22.441 22.477c-7.025 7.025-18.401 7.025-25.426 0-7.025-7.013-7.025-18.401 0-25.426l25.918-25.978zM562.589 752.874c4.603 0 9.207 1.75 12.719 5.263l81.397 81.397c7.025 7.013 7.025 18.413 0 25.426-7.025 7.025-18.401 7.025-25.426 0l-81.397-81.397c-7.025-7.013-7.025-18.413 0-25.426 3.5-3.512 8.104-5.263 12.707-5.263zM758.482 784.163c-7.025 7.025-18.401 7.025-25.426 0l-49.63-49.63c-7.025-7.025-7.025-18.413 0-25.426 3.512-3.512 8.116-5.263 12.719-5.263s9.207 1.75 12.719 5.263l49.63 49.63c7.001 7.025 7.001 18.413-0.012 25.426zM789.998 797.709c4.591 0 9.195 1.75 12.707 5.251l39.68 39.56c7.025 7.013 7.049 18.401 0.036 25.426s-18.401 7.049-25.438 0.036l-39.68-39.56c-7.025-7.013-7.049-18.401-0.036-25.426 3.512-3.524 8.128-5.287 12.731-5.287zM1018.725 861.844c-7.025 7.025-18.401 7.025-25.426 0l-260.843-260.855c-7.025-7.013-7.025-18.413 0-25.426 3.512-3.512 8.116-5.263 12.719-5.263s9.207 1.75 12.719 5.263l260.855 260.855c7.001 7.025 7.001 18.413-0.024 25.426zM651.526 658.626c-1.75 5.454-4.687 9.746-10.118 11.568-2.517 0.839-4.376 1.666-6.425 2.194-56.019 16.963-111.175 25.906-169.244 22.621-0.432-0.024-0.527 2.242-0.947 2.242-0.012 0-0.024 0-0.036 0-11.233 0-22.381-3.944-33.374-5.347-11.017-1.391-21.878-4.316-32.511-6.449-0.036-0.012-0.072-0.599-0.108-0.611-95.279-18.593-182.155-65.202-251.205-134.276-17.286-17.286-33.902-35.82-48.263-55.18-43.060-58.081-75.32-125.009-87.307-196.54 0 0 0-0.012 0-0.012 0-22.189 0-44.379-11.988-65.945 0-0.048 0-0.084 0-0.132 0-57.625 6.054-115.011 22.705-169.999 0.719-2.661 2.829-5.179 3.668-7.696 1.822-5.418 6.773-9.65 12.216-11.388 48.347-15.464 98.612-20.919 149.153-20.919 9.566 0 19.48 3.165 29.070 3.165 0.012 0 0.024 0 0.036 0 10.741 0 21.65-0.719 32.643 0.671 0.575 0.072 1.175-0.959 1.75-0.875 10.441 1.355 20.955 2.422 31.492 4.471 0.024 0 0.048-0.276 0.072-0.264 35.736 6.953 70.285 17.67 103.155 32.175 54.832 24.179 105.001 58.417 148.205 101.633 69.146 69.134 112.865 156.046 131.411 251.397 4.328 22.165 5.742 44.319 5.742 65.921 0 0.048 0 0.084 0 0.132 11.988 60.395-1.415 120.094-19.792 177.444zM433.576 653.555c1.858 0.252 3.74 0.456 5.61 0.683 5.574 0.659 11.245 1.079 16.903 1.534 21.434-37.846 47.855-72.982 79.168-104.306 31.456-31.456 66.616-57.865 104.414-79.18-0.444-5.371-0.839-10.741-1.486-16.172-0.24-2.038-0.48-4.088-0.755-6.138-0.228-1.738-0.587-3.5-0.839-5.251-44.906 22.010-85.641 51.14-121.329 86.828-35.724 35.82-64.794 76.506-86.66 121.173 1.678 0.252 3.285 0.599 4.975 0.827zM498.358 661.287c30.797 0 61.462-5.718 91.815-12.347 1.007-0.216 2.014-1.415 3.009-1.642 9.854-2.218 19.684-5.191 29.466-8.080 2.733-9.183 5.071-18.689 7.217-27.992 0.432-1.87 0.875-3.86 1.283-5.742 1.954-9.027 3.656-18.162 5.047-27.284 0.264-1.702 0.468-3.452 0.707-5.155 1.211-8.535 2.182-17.131 2.901-25.738 0.096-1.211 0.252-2.41 0.336-3.62 0.695-9.267 1.031-18.569 1.151-27.896 0.012-1.019 0.012-2.038 0.024-3.057-28.915 17.97-55.959 41.382-80.642 66.065-24.575 24.587-46.069 46.513-64.123 82.476 0.611 0.012 1.211 0.012 1.81 0.012zM172.996 524.854c8.008 8.008 16.267 15.68 24.779 23.017 55.947 48.275 122.408 81.589 194.419 97.953 24.024-51.715 56.738-98.684 97.629-139.67 40.866-40.866 87.919-73.665 139.91-97.869-3.141-13.846-6.893-27.5-11.293-40.902-15.009-45.65-36.97-88.614-65.669-127.311-1.918-2.589-4.076-5.011-6.054-7.552-11.724-15.129-24.251-29.73-37.965-43.432-16.016-16.016-33.062-30.701-50.996-44.007-50.061-37.126-107.183-63.116-168.201-76.974-24.215 52.051-57.026 99.067-97.845 139.79-40.855 40.962-87.823 73.737-139.694 97.785 18.833 82.884 60.275 158.479 120.981 219.173zM247.776 60.41c-2.002-0.264-4.004-0.503-6.006-0.743-5.454-0.647-10.825-1.043-16.208-1.486-21.35 37.87-47.819 73.042-79.311 104.414-31.456 31.456-66.544 57.829-104.174 79.060 0.444 5.407 0.839 10.789 1.498 16.255 0.24 1.978 0.468 3.956 0.731 5.946 0.24 1.786 0.599 3.596 0.863 5.383 44.763-21.866 85.413-50.984 121.101-86.78 35.676-35.58 64.806-76.279 86.828-121.209-1.762-0.24-3.56-0.611-5.323-0.839zM182.67 56.526c-9.698 0.12-19.372 0.48-28.999 1.211-0.551 0.036-1.091 0.108-1.642 0.156-9.362 0.743-18.677 1.822-27.968 3.153-1.295 0.192-2.601 0.336-3.896 0.539-9.315 1.415-18.593 3.153-27.824 5.155-1.75 0.384-3.5 0.791-5.251 1.199-9.374 2.146-18.713 4.507-27.98 7.253-2.733 9.231-5.071 18.521-7.205 27.848-0.432 1.882-0.875 3.764-1.283 5.658-1.966 9.075-3.656 18.186-5.059 27.332-0.252 1.63-0.444 3.261-0.671 4.891-1.223 8.655-2.218 17.322-2.949 26.026-0.096 1.115-0.228 2.242-0.312 3.357-0.695 9.255-1.043 18.545-1.175 27.836-0.012 1.019-0.012 2.026-0.024 3.045 28.783-17.91 55.743-39.368 80.414-64.039 24.719-24.635 46.249-51.656 64.267-80.63-0.815 0-1.63 0-2.446 0.012z" />
<glyph unicode="&#xe90f;" glyph-name="sports-4" d="M759.977 337.694c-7.512 3.005-15.407 4.524-23.513 4.524h-70.923c-1.293 12.403-2.341 24.491-2.166 36.108 0.052 4.035 0.297 8.053 0.664 12.001 6.079 62.119 58.084 113.529 123.661 122.281l132.029 17.591c11.285 1.502 21.19 8.437 26.465 18.552 5.328 10.219 5.328 22.465 0 32.736-117.879 227.391-432.631 333.338-673.49 226.727-203.616-90.104-298.087-311.013-241.121-543.138-27.95-18.482-39.602-54.887-25.714-86.61l42.903-98.052c4.891-11.25 14.586-19.233 26.552-21.923 2.83-0.646 5.677-0.961 8.49-0.961 9.084 0 17.836 3.267 24.928 9.433l75.57 65.997-28.492 50.921 26.028 11.512c25.277 11.215 54.677 3.494 73.159-19.146 47.113-57.664 117.041-89.038 188.453-89.038 33.068 0 66.451 6.743 98.017 20.718 16.456 7.284 30.693 14.918 43.34 22.762 60.512-49.209 131.19-84.584 178.513-84.584h197.414c35.462 0 63.254 26.937 63.254 61.298v116.045l-264.023 114.246zM989.063 157.87l-225.731 42.484v97.825l225.731-97.668v-42.641zM587.648 174.937c-20.019 17.871-38.239 37.086-52.686 56.721 7.424 7.25 13.923 15.425 19.46 24.264l71.797-33.505c-7.215-16.438-19.338-32.265-38.571-47.48zM526.979 307.281h10.691c-0.279-1.52-0.629-3.022-0.996-4.524l-9.695 4.524zM522.542 270.806c-2.026-2.935-4.245-5.73-6.586-8.42-2.481 4.856-4.629 9.695-6.498 14.517l13.084-6.097zM504.986 342.218c-17.154 0-32.317-10.307-38.606-26.273-5.625-14.289-2.97-30.134 6.656-41.68 3.546-11.197 8.874-22.552 15.128-33.907-13.206-6.935-28.195-10.9-44.126-10.9-52.546 0-95.292 42.746-95.292 95.309s42.746 95.309 95.292 95.309c46.589 0 85.405-33.61 93.632-77.841l-32.684-0.017zM568.869 287.751c1.887 6.324 3.214 12.857 4.123 19.548h61.088c1.747-17.399 2.69-34.204 0.978-50.432l-66.189 30.885zM669.158 307.281h59.236v-93.999l-60.547 28.247c4.053 22.395 3.267 44.615 1.31 65.752zM123.731 169.697l16.263-29.051-54.223-47.358c-1.013-0.856-2.061-0.873-2.778-0.716s-1.677 0.611-2.201 1.817l-42.903 98.069c-5.293 12.088-3.214 25.574 4.227 35.444 1.922-6.097 3.913-12.211 6.044-18.307 2.079-6.149 4.21-12.088 6.428-17.871 4.507-11.791 13.73-21.312 25.277-26.133 11.547-4.786 24.159-4.629 35.531 0.402l8.333 3.703zM527.346 139.895c-85.457-37.785-186.287-13.748-245.296 58.485-19.687 24.089-47.637 37.121-76.129 37.121-12.857 0-25.836-2.655-38.222-8.14l-66.469-29.4c-3.284-1.467-6.132-0.856-7.966-0.087-2.795 1.17-4.961 3.424-6.097 6.359-1.974 5.171-3.721 10.289-5.52 15.407-4.227 12.385-8.245 25.801-12.333 41.261l-5.206 19.705-0.507-0.227c-55.9 236.352 62.311 424.665 223.233 495.885 224.91 99.484 518.542 1.013 628.281-211.442l-132.029-17.591c-81.509-10.866-146.196-75.413-153.83-153.533-0.472-4.909-0.751-9.852-0.838-14.866-0.175-12.193 0.804-24.439 2.009-36.614h-57.455c-8.577 63.569-63.062 112.778-128.937 112.778-71.797 0-130.229-58.433-130.229-130.247s58.433-130.247 130.229-130.247c22.832 0 44.283 5.939 62.957 16.298 14.132-19.32 31.147-38.274 50.030-56.022-8.996-5.014-18.622-9.992-29.679-14.883zM657.436 207.866l70.958-33.121v-86.767c-33.4 10.988-75.081 34.553-113.739 64.477 20.753 17.783 34.291 36.44 42.781 55.411zM960.746 81.060h-197.414v84.252l225.731-42.956v-14.936c0-15.023-12.176-26.36-28.317-26.36zM221.172 395.83h-21.329c-28.893 0-52.406-23.513-52.406-52.406v-21.329c0-28.893 23.513-52.406 52.406-52.406h21.329c28.893 0 52.406 23.513 52.406 52.406v21.329c0 28.911-23.513 52.406-52.406 52.406zM238.64 322.112c0-9.625-7.826-17.469-17.469-17.469h-21.329c-9.643 0-17.469 7.843-17.469 17.469v21.329c0 9.625 7.826 17.469 17.469 17.469h21.329c9.643 0 17.469-7.843 17.469-17.469 0 0 0-21.329 0-21.329z" />
<glyph unicode="&#xe910;" glyph-name="circle" d="M512 960c-281.6 0-512-230.4-512-512s230.4-512 512-512 512 230.4 512 512-230.4 512-512 512zM512 38.4c-225.28 0-409.6 184.32-409.6 409.6s184.32 409.6 409.6 409.6 409.6-184.32 409.6-409.6-184.32-409.6-409.6-409.6zM563.2 499.2v153.6h-102.4v-153.6h-153.6v-102.4h153.6v-153.6h102.4v153.6h153.6v102.4h-153.6z" />
<glyph unicode="&#xe911;" glyph-name="fashion" d="M971.716 677.489c-1.289 0.759-2.612 1.424-3.959 2.004l-60.246 189.955c-6.681 21.256-23.293 38.151-44.43 45.198l-128.071 42.687c-5.308 1.769-10.837 2.667-16.435 2.667h-48.327c-17.505 0-32.142-13.067-34.044-30.393-6.951-63.369-60.35-111.154-124.205-111.154s-117.254 47.785-124.207 111.154c-1.902 17.326-16.539 30.393-34.044 30.393h-48.327c-5.596 0-11.125-0.898-16.437-2.667l-128.066-42.69c-21.139-7.046-37.749-23.941-44.421-45.16l-60.257-189.993c-1.347-0.577-2.669-1.243-3.959-2.004-10.581-6.224-16.897-17.271-16.897-29.546v-30.293c0-12.441 6.757-23.924 17.634-29.966l141.608-78.669v-467.959c0-12.887 7.155-24.125 17.693-29.979v-40.794c0-18.903 15.378-34.281 34.281-34.281h530.799c18.903 0 34.281 15.378 34.281 34.281v40.794c10.539 5.854 17.693 17.092 17.693 29.979v467.959l141.606 78.671c10.877 6.042 17.634 17.525 17.634 29.966v30.293c0 12.275-6.314 23.32-16.897 29.546zM934.089 675.912l-104.716-58.176v72.47c0 13.33 2.444 26.387 7.268 38.81l44.359 114.288 53.089-167.392zM354.817 925.989c8.802-80.217 76.378-140.71 157.183-140.71s148.38 60.493 157.183 140.71c0.053 0.46 0.531 0.836 1.068 0.836h36.758c-3.926-46.905-24.397-90.448-58.403-123.592-36.758-35.825-85.268-55.553-136.606-55.553-51.572 0-100.248 19.887-137.059 55.995-33.759 33.117-54.029 76.466-57.935 123.15h36.742c0.537 0 1.015-0.376 1.068-0.836zM284.208 920.77c5.22-53.365 28.805-102.816 67.504-140.779 43.048-42.227 99.974-65.485 160.288-65.485 60.038 0 116.774 23.074 159.759 64.97 38.981 37.994 62.787 87.67 68.037 141.292l112.795-37.598c2.479-0.827 4.817-1.946 7.026-3.26l-53.905-138.886c-6.312-16.265-9.515-33.363-9.515-50.815v-544.1h-568.397v544.1c0 17.452-3.2 34.551-9.515 50.815l-53.907 138.888c2.209 1.312 4.547 2.433 7.026 3.258l112.801 37.6zM796.199 41.054c0-0.61-0.498-1.106-1.106-1.106h-566.186c-0.608 0-1.106 0.495-1.106 1.106v71.879h568.397v-71.879zM142.999 843.31l44.359-114.292c4.824-12.423 7.268-25.481 7.268-38.81v-72.47l-104.716 58.173 53.089 167.399zM69.132 616.684c-0.352 0.195-0.571 0.566-0.571 0.966v30.293c0 0.252 0 0.633 0.544 0.953 0.226 0.133 0.416 0.179 0.575 0.179 0.228 0 0.394-0.093 0.522-0.166l124.424-69.123v-32.821l-125.494 69.718zM777.4-30.825h-530.799c-0.608 0-1.106 0.495-1.106 1.106v36.492h533.011v-36.492c0-0.61-0.498-1.106-1.106-1.106zM955.438 617.65c0-0.4-0.219-0.772-0.571-0.966l-125.494-69.718v32.821l124.424 69.123c0.221 0.124 0.553 0.305 1.097-0.013 0.544-0.321 0.544-0.701 0.544-0.953v-30.293zM382.901 503.037c8.69-2.893 18.085 1.8 20.982 10.492l13.911 41.739h6.845v-232.225h-18.799c-9.163 0-16.587-7.427-16.587-16.587s7.425-16.587 16.587-16.587h70.773c9.163 0 16.587 7.427 16.587 16.587s-7.425 16.587-16.587 16.587h-18.799v248.81c0 9.161-7.425 16.587-16.587 16.587h-35.387c-7.141 0-13.48-4.569-15.736-11.341l-17.693-53.080c-2.897-8.692 1.8-18.085 10.49-20.982zM580.562 289.866h4.423c37.194 0 67.456 30.26 67.456 67.456v163.663c0 37.196-30.262 67.456-67.456 67.456h-4.423c-37.194 0-67.456-30.26-67.456-67.456v-163.663c0-37.196 30.262-67.456 67.456-67.456zM546.281 520.985c0 18.903 15.378 34.281 34.281 34.281h4.423c18.903 0 34.281-15.378 34.281-34.281v-163.663c0-18.903-15.378-34.281-34.281-34.281h-4.423c-18.903 0-34.281 15.378-34.281 34.281v163.663z" />
<glyph unicode="&#xe912;" glyph-name="social" d="M0 448c0-282.251 229.749-512 512-512s512 229.749 512 512-229.749 512-512 512c-282.251 0-512-229.749-512-512zM213.998 97.286c75.603 51.032 140.495 83.793 159.606 93.244 11.55 5.67 18.901 17.221 18.901 30.241v64.263c0 4.62-1.26 9.030-3.57 13.021-13.021 22.051-22.051 48.512-26.671 78.543-1.47 10.080-9.030 18.271-18.481 20.791-2.52 3.15-9.66 14.071-18.691 45.782-7.14 25.201-7.14 37.591-6.51 42.632 7.77 0 15.331 3.57 20.161 9.87 5.46 6.93 6.93 16.171 3.99 24.361-10.080 28.561-11.34 57.752-3.57 87.573 6.72 28.561 22.051 55.442 45.782 79.803 12.811 13.651 27.511 25.831 43.262 35.701 0.21 0.21 0.63 0.42 0.84 0.63 13.231 9.24 26.881 16.171 40.532 20.791h0.21c11.55 3.99 23.521 6.090 36.331 6.72 34.441 2.94 65.313-3.36 92.404-19.531 29.821-16.381 41.792-37.801 41.792-37.801 4.2-7.98 12.18-13.231 21.001-13.861 0.21 0 11.55-2.1 21.841-15.541 12.18-16.171 29.401-58.172 8.4-159.606-2.31-11.55 3.36-23.101 13.651-28.141 0.84-3.99 1.89-16.171-6.090-44.522-7.14-25.201-13.021-37.171-16.591-42.632-4.41 0.63-9.24 0-13.441-1.68-7.98-3.36-13.861-10.71-15.331-19.111-4.2-23.731-10.71-44.942-19.531-63.002-1.68-3.57-2.52-7.35-2.52-11.13v-74.343c0-13.021 7.14-24.571 18.901-30.241 19.321-9.45 84.213-42.422 159.606-93.244-80.433-68.463-184.387-109.834-298.002-109.834-113.824 0.42-217.779 41.792-298.212 110.254zM512 908.548c253.9 0 460.548-206.648 460.548-460.548 0-121.385-47.252-232.059-124.325-314.382-72.033 49.352-136.085 83.583-165.066 98.074v57.542c6.93 15.121 12.6 31.921 16.801 49.772 20.581 7.77 35.071 31.711 48.722 79.803 12.39 43.892 11.34 74.763-3.36 92.404 15.331 84.213 8.4 146.376-20.791 184.807-15.121 20.161-32.761 28.981-44.942 32.761-8.61 12.18-26.041 31.921-55.022 47.882-35.911 21.211-77.073 30.031-121.385 26.251-16.801-0.84-33.391-3.99-49.562-9.45h-0.21c-18.061-6.090-35.701-15.121-52.712-26.881-19.321-12.39-37.171-27.091-52.502-43.262-30.241-30.871-49.982-65.733-58.592-102.904-7.98-30.661-8.82-61.322-2.31-91.564-2.73-2.1-5.46-4.41-7.77-7.35-15.121-18.271-16.381-47.462-3.78-92.194 8.4-29.611 19.321-60.062 38.221-74.133 5.67-28.351 14.701-54.182 27.091-76.863v-46.622c-28.771-14.491-93.034-48.722-165.066-98.074-77.073 82.323-124.535 192.998-124.535 314.382 0 253.9 206.648 460.548 460.548 460.548z" />
<glyph unicode="&#xe913;" glyph-name="interface" d="M672 416h-320c-17.664 0-32-14.336-32-32s14.336-32 32-32h320c17.664 0 32 14.336 32 32s-14.336 32-32 32zM736 608h-448c-17.664 0-32-14.336-32-32s14.336-32 32-32h448c17.664 0 32 14.336 32 32s-14.336 32-32 32zM512 960c-282.751 0-512-200.575-512-448 0-141.409 75.040-267.296 192-349.408v-226.592l224.288 136.097c31.041-5.122 62.976-8.097 95.712-8.097 282.785 0 512 200.575 512 448s-229.215 448-512 448zM512 128c-37.376 0-73.472 4.352-108.161 11.744l-150.657-90.559 2.016 148.415c-115.486 69.471-191.199 184.287-191.199 314.4 0 212.063 200.575 384 448 384s448-171.937 448-384-200.575-384-448-384z" />
<glyph unicode="&#xe914;" glyph-name="clock" d="M983.127 647.31c-53.988 125.867-145.729 217.406-272.647 271.536-63.434 27.054-129.892 40.873-199.322 40.873-69.418 0-135.386-13.688-198.75-40.873-125.867-53.986-218.015-145.467-272.098-271.536-27.101-63.16-40.311-129.33-40.311-198.748 0-69.431 13.21-136.15 40.311-199.324 54.083-126.069 146.243-218.099 272.098-272.098 63.376-27.185 129.33-40.86 198.75-40.86s135.887 13.819 199.312 40.86c126.917 54.131 218.659 146.243 272.658 272.098 27.183 63.376 40.871 129.892 40.871 199.324 0 69.418-13.677 135.374-40.873 198.748zM901.394 222.364c-40.192-68.928-95.254-123.61-164.601-164.039-68.928-40.192-144.451-60.461-225.623-60.461-61.022 0-119.249 11.753-174.682 35.832-55.432 24.067-103.292 55.708-143.328 95.732-40.036 40.036-71.903 88.364-95.731 143.89-23.758 55.324-35.271 114.209-35.271 175.243 0 81.184 19.946 156.324 59.912 225.061 40.108 68.988 95.182 123.728 164.039 164.041 68.846 40.311 143.879 60.473 225.049 60.473 81.184 0 156.694-20.281 225.623-60.473 69.348-40.431 124.291-95.17 164.601-164.039 40.311-68.857 60.461-143.879 60.461-225.061 0-81.185-20.018-156.838-60.449-226.199zM543.634 453.040v290.015c0 17.354-15.121 31.352-32.477 31.352-16.232 0-30.792-13.998-30.792-31.352v-294.492c0-0.562 1.123-2.808 1.123-4.481-1.123-10.079 1.685-18.477 8.398-25.202l167.409-167.397c11.202-11.202 31.913-11.202 43.107 0 12.874 12.875 12.027 31.557 0 43.669l-156.767 157.888z" />
<glyph unicode="&#xe915;" glyph-name="heart" d="M464.6 12.633c12.737-12.737 29.86-19.837 47.817-19.837 17.749 0 35.289 7.308 47.817 19.837l375.23 375.23c57.005 57.005 88.326 132.803 88.535 213.194 0 80.6-31.321 156.398-88.326 213.403s-132.594 88.326-213.194 88.326c-79.139 0-153.684-30.277-210.271-85.403-56.796 55.334-131.55 85.821-210.897 85.821-80.392 0-155.98-31.321-212.985-88.117-57.005-57.005-88.326-132.803-88.326-213.403 0-80.392 31.53-156.189 88.535-213.194l376.065-375.856zM124.659 778.754c47.191 47.191 110.042 73.292 176.861 73.292s129.879-26.101 177.279-73.501l15.452-15.452c4.803-4.803 11.276-7.517 18.166-7.517v0c6.682 0 13.364 2.715 18.166 7.517l15.034 15.034c47.4 47.4 110.251 73.501 177.279 73.501 66.819 0 129.67-26.101 176.861-73.292 47.4-47.4 73.292-110.251 73.292-177.070s-26.101-129.67-73.501-177.070l-375.439-375.439c-6.055-6.055-17.122-6.055-23.387 0l-375.856 375.856c-47.4 47.4-73.501 110.251-73.501 177.070s26.101 129.67 73.292 177.070z" />
<glyph unicode="&#xe916;" glyph-name="facebook" d="M269.883 414.618h112.247v-462.101c0-9.124 7.393-16.516 16.516-16.516h190.319c9.124 0 16.516 7.393 16.516 16.516v459.925h129.037c8.39 0 15.449 6.296 16.407 14.63l19.598 170.123c0.538 4.681-0.945 9.368-4.076 12.879-3.135 3.515-7.621 5.526-12.328 5.526h-148.632v106.641c0 32.147 17.309 48.448 51.451 48.448 4.866 0 97.181 0 97.181 0 9.124 0 16.516 7.396 16.516 16.516v156.157c0 9.124-7.393 16.516-16.516 16.516h-133.929c-0.945 0.046-3.042 0.122-6.134 0.122-23.238 0-104.012-4.562-167.817-63.26-70.696-65.047-60.869-142.931-58.52-156.434v-124.703h-117.836c-9.124 0-16.516-7.393-16.516-16.516v-167.949c0-9.124 7.393-16.519 16.516-16.519z" />
<glyph unicode="&#xe917;" glyph-name="twitter-logo-silhouette" d="M1024 765.477c-37.689-16.7-78.129-28.026-120.618-33.083 43.384 25.98 76.594 67.187 92.334 116.139-40.696-24.059-85.616-41.529-133.48-50.999-38.328 40.888-92.846 66.356-153.316 66.356-116.010 0-210.072-94.062-210.072-210.009 0-16.444 1.856-32.505 5.44-47.864-174.559 8.768-329.345 92.399-432.941 219.481-18.109-30.971-28.411-67.059-28.411-105.581 0-72.883 37.113-137.191 93.423-174.815-34.426 1.151-66.804 10.621-95.15 26.363v-2.624c0-101.741 72.435-186.652 168.48-205.978-17.597-4.735-36.153-7.359-55.35-7.359-13.565 0-26.683 1.344-39.544 3.904 26.746-83.505 104.301-144.228 196.188-145.893-71.859-56.31-162.466-89.776-260.879-89.776-16.956 0-33.658 1.024-50.102 2.88 92.975-59.702 203.354-94.511 321.988-94.511 386.423 0 597.648 320.069 597.648 597.648l-0.704 27.195c41.271 29.437 76.976 66.421 105.067 108.526z" />
<glyph unicode="&#xe918;" glyph-name="instagram-symbol" d="M970.551 906.535c-24.973 24.98-54.901 37.465-89.765 37.465h-737.548c-34.876 0-64.795-12.49-89.775-37.465-24.975-24.968-37.46-54.892-37.46-89.761v-737.541c0-34.866 12.483-64.795 37.46-89.765 24.98-24.973 54.904-37.467 89.775-37.467h737.539c34.859 0 64.795 12.493 89.768 37.467 24.98 24.971 37.453 54.901 37.453 89.765v737.541c-0.002 34.876-12.473 64.783-37.446 89.761zM372.19 586.537c38.963 37.667 85.786 56.512 140.467 56.512 55.104 0 102.14-18.843 141.11-56.512 38.97-37.674 58.444-83.211 58.444-136.598 0-53.38-19.474-98.919-58.444-136.582-38.97-37.683-85.99-56.524-141.11-56.524-54.679 0-101.499 18.857-140.467 56.524-38.97 37.667-58.454 83.201-58.454 136.582 0 53.387 19.484 98.921 58.454 136.598zM895.64 105.701c0-11.187-3.886-20.547-11.628-28.086-7.766-7.533-17.009-11.302-27.783-11.302h-690.385c-11.192 0-20.564 3.768-28.093 11.302-7.539 7.524-11.307 16.899-11.307 28.086v418.515h91.059c-8.607-27.128-12.912-55.335-12.912-84.605 0-82.685 30.135-153.175 90.413-211.528 60.285-58.329 132.832-87.509 217.651-87.509 55.972 0 107.636 13.354 155.013 40.045 47.361 26.708 84.795 62.973 112.372 108.834 27.559 45.856 41.337 95.912 41.337 150.156 0 29.271-4.32 57.47-12.927 84.605h87.197v-418.515h-0.005zM895.64 682.446c0-12.487-4.306-23.036-12.929-31.647-8.607-8.616-19.15-12.919-31.645-12.919h-112.372c-12.48 0-23.038 4.306-31.647 12.919-8.609 8.609-12.912 19.16-12.912 31.647v106.552c0 12.058 4.303 22.496 12.912 31.326 8.609 8.825 19.169 13.241 31.647 13.241h112.372c12.493 0 23.038-4.416 31.645-13.241 8.623-8.83 12.929-19.268 12.929-31.326v-106.552z" />
<glyph unicode="&#xe919;" glyph-name="pinterest-logo" d="M905.592 675.263c-27.967 202.368-229.631 305.407-444.799 281.28-170.112-19.072-339.713-156.609-346.753-353.279-4.288-120.063 29.76-210.111 144-235.457 49.472 87.551-15.935 106.688-26.175 170.112-41.921 259.2 299.007 436.224 477.568 255.103 123.648-125.44 42.175-511.103-156.992-470.976-190.784 38.272 93.439 345.279-58.816 405.504-123.777 49.024-189.504-149.76-130.817-248.577-34.432-169.921-108.543-329.919-78.528-542.975 97.279 70.656 130.112 205.759 156.992 346.751 48.896-29.76 75.073-60.544 137.409-65.344 229.888-17.853 358.463 229.507 326.911 457.858z" />
<glyph unicode="&#xe91a;" glyph-name="map-marker-point" d="M512 960c-212.059 0-384.001-171.942-384.001-384.001s320.005-639.999 384.003-639.999c64.001 0 384.001 427.94 384.001 639.999s-171.942 384.001-384.003 384.001zM512 320.001c-141.187 0-255.998 114.876-255.998 255.998s114.811 256.002 255.998 256.002c141.191 0 255.998-114.881 255.998-256.002s-114.805-255.998-255.998-255.998z" />
<glyph unicode="&#xe91b;" glyph-name="american-football-player" d="M873.165 464.589c-20.546 0-39.863-8.002-54.436-22.574-8.263-8.263-19.248-12.812-30.934-12.812h-63.475c-7.635 0-14.283-5.211-16.108-12.624-0.040-0.166-2.201-8.694-8.046-22.156-17.045 3.063-30.032 17.97-30.032 35.886v29.274c43.587 41.701 70.773 100.409 70.773 165.352v106.16c0 126.219-102.687 228.907-228.907 228.907s-228.907-102.687-228.907-228.907v-106.16c0-64.943 27.186-123.652 70.773-165.352v-29.274c0-17.899-12.963-32.799-29.988-35.878-5.839 13.438-8.053 22.002-8.090 22.15-1.825 7.413-8.473 12.624-16.108 12.624h-63.475c-11.686 0-22.669 4.552-30.976 12.856-14.531 14.526-33.847 22.528-54.394 22.528-83.172 0-150.835-67.663-150.835-150.835v-83.404c0-24.33 12.96-47.221 33.823-59.739l1.564-0.938v-164.003c0-38.414 31.253-69.667 69.667-69.667h233.575c0.024 0 0.046 0 0.071 0h346.587c0.024 0 0.049-0.002 0.075-0.002 0.022 0 0.044 0.002 0.064 0.002h233.52c38.414 0 69.667 31.253 69.667 69.667v164.001l1.564 0.938c20.863 12.518 33.823 35.409 33.823 59.739v83.406c-0.002 83.172-67.668 150.835-150.837 150.835zM601.766 451.036l6.622 59.604c30.868 5.717 56.108 13.646 75.959 21.592-18.715-34.654-47.577-63.054-82.581-81.197zM320.726 584.483c-0.115 0.203-0.248 0.387-0.372 0.584-1.944 9.355-3.211 18.954-3.762 28.74 2.019-1.223 4.087-2.382 6.248-3.397 20.135-9.468 48.263-19.936 84.731-27.396l4.202-37.815c-32.301 6.783-57.193 16.054-75.101 24.463-6.728 3.158-12.242 8.283-15.946 14.82zM703.646 585.066c-0.122-0.195-0.254-0.38-0.369-0.582-3.705-6.54-9.218-11.666-15.946-14.825-17.908-8.409-42.8-17.68-75.101-24.463l4.202 37.815c36.468 7.458 64.596 17.928 84.731 27.394 2.161 1.015 4.229 2.174 6.248 3.397-0.553-9.782-1.82-19.381-3.764-28.736zM528.589 429.912v72.505c16.262 0.456 31.543 1.57 45.863 3.189l-7.619-68.577c-12.297-3.592-25.087-6.007-38.244-7.117zM528.589 535.612v37.58c19.323 0.544 37.255 2.021 53.836 4.169l-4.209-37.888c-15.26-1.968-31.79-3.333-49.627-3.862zM707.733 673.36c0-14.095-8.119-27.022-20.688-32.929-33.274-15.645-90.656-34.296-175.044-34.296-84.39 0-141.77 18.651-175.044 34.296-12.569 5.91-20.688 18.834-20.688 32.929v4.653c0 20.122 16.371 36.492 36.492 36.492h318.479c20.122 0 36.492-16.371 36.492-36.492v-4.653zM441.577 577.361c16.579-2.148 34.511-3.625 53.836-4.169v-37.58c-17.837 0.529-34.367 1.893-49.625 3.862l-4.211 37.888zM495.414 502.417v-72.505c-13.157 1.11-25.949 3.525-38.244 7.117l-7.619 68.577c14.318-1.619 29.601-2.731 45.863-3.189zM512.001 396.027c19.281 0 38.007 2.408 55.909 6.918-13.283-16.486-33.595-26.823-55.909-26.823s-42.625 10.337-55.909 26.823c17.901-4.51 36.627-6.918 55.909-6.918zM495.434 926.117c-0.002-0.133-0.020-0.263-0.020-0.398v-123.853c0-9.161 7.427-16.587 16.587-16.587s16.587 7.427 16.587 16.587v123.853c0 0.135-0.018 0.263-0.020 0.398 98.133-8.265 175.887-89.238 179.051-188.719-10.596 6.516-23.054 10.282-36.38 10.282h-318.479c-13.325 0-25.784-3.766-36.38-10.282 3.165 99.48 80.916 180.454 179.051 188.719zM339.653 532.23c19.852-7.946 45.091-15.875 75.957-21.592l6.622-59.604c-34.999 18.144-63.862 46.542-82.579 81.197zM410.961 419.572c12.578-44.888 53.741-76.625 101.040-76.625s88.46 31.737 101.040 76.625c8.267 4.083 16.251 8.65 23.919 13.666v-2.93c0-12.901 3.539-24.985 9.674-35.358-19.947-42.572-74.396-71.908-134.632-71.908-60.195 0-114.69 29.344-134.637 71.903 6.14 10.373 9.678 22.459 9.678 35.362v2.93c7.668-5.014 15.652-9.581 23.919-13.666zM352.846 370.381c28.612-48.794 90.065-80.513 159.155-80.513 69.139 0 130.548 31.711 159.153 80.513 4.191-2.49 8.665-4.545 13.358-6.122-3.87-6.401-8.303-13.139-13.387-20.084-38.014-51.93-91.529-88.55-159.124-108.895-67.031 20.177-120.239 56.382-158.218 107.664-5.447 7.356-10.182 14.524-14.283 21.323 4.689 1.575 9.158 3.627 13.345 6.115zM813.892 54.065v-84.888h-115.497c-23.043 82.778-99.323 141.546-186.394 141.546s-163.351-58.768-186.394-141.546h-115.497v84.888c0 18.883-6.239 37.067-17.187 51.91l165.107 181.617c32.668-32.343 80.692-65.795 149.389-85.545 2.995-0.863 6.173-0.863 9.167 0 68.696 19.75 116.72 53.201 149.389 85.545l165.107-181.617c-10.952-14.845-17.189-33.027-17.189-51.91zM663.714-30.823h-303.426c21.88 63.859 82.718 108.371 151.713 108.371s129.831-44.512 151.713-108.371zM33.177 230.347v83.406c0 64.877 52.783 117.66 117.66 117.66 11.686 0 22.669-4.552 30.976-12.856 14.528-14.528 33.845-22.53 54.394-22.53h51.337c5.372-15.033 16.873-41.818 38.562-71.448 2.917-3.985 6.093-8.106 9.519-12.315l-167.108-183.82c-0.279 0.17-0.542 0.363-0.823 0.531l-116.8 70.081c-10.928 6.558-17.718 18.547-17.718 31.291zM68.564 5.669v144.098l82.064-49.238c16.227-9.736 26.308-27.54 26.308-46.465v-84.888h-71.879c-20.122 0-36.492 16.371-36.492 36.492zM955.439 5.669c0-20.122-16.371-36.492-36.492-36.492h-71.879v84.888c0 18.925 10.081 36.727 26.308 46.465l82.064 49.238v-144.098zM990.825 230.347c0-12.744-6.788-24.735-17.718-31.291l-116.802-70.081c-0.281-0.168-0.544-0.361-0.823-0.531l-167.108 183.82c3.428 4.209 6.602 8.327 9.519 12.315 21.69 29.63 33.19 56.415 38.562 71.448h51.337c20.546 0 39.863 8.002 54.436 22.574 8.263 8.263 19.248 12.812 30.934 12.812 64.877 0 117.66-52.783 117.66-117.66v-83.406z" />
<glyph unicode="&#xe91c;" glyph-name="football-helmet" horiz-adv-x="1072" d="M40.277-46.54c1.126-8.562 7.773-16.221 16.447-16.447 40.104-1.013 80.996 3.041 119.072 16.221 27.374 9.463 53.284 24.67 71.872 46.975 32.557 39.202 37.175 92.488 43.033 141.152 0.564 4.62 4.28 8.336 8.899 8.787 4.844 0.564 9.575 1.012 14.307 1.576 5.183 0.564 10.026-2.929 10.927-8.111 2.028-11.378 4.957-22.979 8.786-34.808 37.852-113.891 165.485-138.787 269.913-112.087 43.708 11.151 79.080 30.754 114.905 57.79 30.64 23.093 62.296 47.088 99.582 58.016 10.927 3.267 21.066 4.844 30.191 4.844 11.716 0 18.363-3.943 22.081-8.335 6.534-7.547 16.335-11.716 26.359-11.716h35.825c10.702 0 20.841 4.957 27.374 13.406 70.97 92.598 107.244 209.417 107.244 329.505 0 286.584-219.784 519.772-489.92 519.772-119.636 0-234.089-47.651-320.718-129.548-53.96-51.031-99.359-113.327-129.661-181.143-26.924-60.381-57.114-148.024 12.617-190.831 47.764-29.29 104.653-31.317 148.812-68.154 18.025-14.983 28.839-33.682 37.4-55.312 2.478-6.421-1.24-13.519-7.998-14.983l-295.146-74.575c-10.702-2.703-17.574-12.842-16.222-23.769-0.114 0.001 26.584-210.433 34.020-268.222zM632.371 353.71c35.935 0 65-29.064 65-64.999s-29.064-65-65-65-65 29.064-65 65c0 35.934 29.064 64.999 65 64.999zM299.6 216.389c1.69 14.758 3.154 26.811 4.168 36.274 0.451 4.28 3.605 7.772 7.886 8.674 1.577 0.339 3.267 0.677 4.844 1.126 4.393 1.013 8.562-2.591 8.111-7.097-1.464-12.841-2.816-26.359-3.492-40.441-0.225-4.957-4.055-9.012-9.012-9.575-0.451 0-0.901-0.114-1.464-0.114-6.421-0.675-11.829 4.732-11.040 11.154zM235.276 130.323c-1.69-13.856-3.492-28.612-5.52-44.497-9.914-80.658-86.854-96.203-130.676-98.456-5.182-0.225-9.801 3.492-10.476 8.674l-15.658 116.933c-0.789 5.518 3.154 10.588 8.675 11.265 30.303 3.829 83.474 10.362 142.391 17.235 6.534 0.789 12.053-4.731 11.265-11.154zM69.34 210.304c42.469 9.012 116.707 24.897 171.004 36.386 4.393 0.902 8.449-2.702 7.886-7.208-1.126-9.689-2.478-20.954-3.943-33.796-0.564-4.62-4.168-8.336-8.899-8.786-66.351-7.661-127.86-15.207-161.092-19.376-5.52-0.677-10.476 3.154-11.265 8.675l-1.69 13.068c-0.564 5.069 2.816 9.912 7.998 11.039z" />
</font>
</defs>
</svg>
